<svg xmlns="http://www.w3.org/2000/svg" style="display: none;">
  <defs>
    <!-- Video Camera Icon -->
    <symbol id="video-camera" viewBox="0 0 24 24">
      <path d="M17 10.5V7c0-.55-.45-1-1-1H4c-.55 0-1 .45-1 1v10c0 .55.45 1 1 1h12c.55 0 1-.45 1-1v-3.5l4 4v-11l-4 4z"/>
    </symbol>
    
    <!-- Clock Icon -->
    <symbol id="clock" viewBox="0 0 24 24">
      <circle cx="12" cy="12" r="10"/>
      <polyline points="12,6 12,12 16,14"/>
    </symbol>
    
    <!-- Camera Icon -->
    <symbol id="camera" viewBox="0 0 24 24">
      <path d="M23 19a2 2 0 0 1-2 2H3a2 2 0 0 1-2-2V8a2 2 0 0 1 2-2h4l2-3h6l2 3h4a2 2 0 0 1 2 2z"/>
      <circle cx="12" cy="13" r="4"/>
    </symbol>
    
    <!-- Star Icon -->
    <symbol id="star" viewBox="0 0 24 24">
      <polygon points="12,2 15.09,8.26 22,9.27 17,14.14 18.18,21.02 12,17.77 5.82,21.02 7,14.14 2,9.27 8.91,8.26"/>
    </symbol>
    
    <!-- Play Circle Icon -->
    <symbol id="play-circle" viewBox="0 0 24 24">
      <circle cx="12" cy="12" r="10"/>
      <polygon points="10,8 16,12 10,16"/>
    </symbol>
    
    <!-- Edit Icon -->
    <symbol id="edit" viewBox="0 0 24 24">
      <path d="M11 4H4a2 2 0 0 0-2 2v14a2 2 0 0 0 2 2h14a2 2 0 0 0 2-2v-7"/>
      <path d="M18.5 2.5a2.121 2.121 0 0 1 3 3L12 15l-4 1 1-4 9.5-9.5z"/>
    </symbol>
    
    <!-- Drone Icon -->
    <symbol id="drone" viewBox="0 0 24 24">
      <path d="M12 2L8 6h8l-4-4z"/>
      <path d="M12 22l4-4H8l4 4z"/>
      <path d="M2 12l4-4v8l-4-4z"/>
      <path d="M22 12l-4-4v8l4-4z"/>
      <rect x="9" y="9" width="6" height="6" rx="1"/>
    </symbol>
    
    <!-- Resolution Icon -->
    <symbol id="resolution" viewBox="0 0 24 24">
      <rect x="2" y="4" width="20" height="16" rx="2"/>
      <path d="M7 15h2v-4H7v4zm4-4h2v4h-2v-4zm4 0h2v4h-2v-4z"/>
      <text x="12" y="10" text-anchor="middle" font-size="6">4K</text>
    </symbol>
    
    <!-- Equipment Icon -->
    <symbol id="equipment" viewBox="0 0 24 24">
      <rect x="2" y="6" width="20" height="8" rx="1"/>
      <path d="M6 6V4a2 2 0 0 1 2-2h8a2 2 0 0 1 2 2v2"/>
      <path d="M6 14v2a2 2 0 0 0 2 2h8a2 2 0 0 0 2-2v-2"/>
      <circle cx="12" cy="10" r="2"/>
    </symbol>
    
    <!-- Experience Icon -->
    <symbol id="experience" viewBox="0 0 24 24">
      <path d="M6 2L3 6v14a2 2 0 0 0 2 2h14a2 2 0 0 0 2-2V6l-3-4z"/>
      <line x1="3" y1="6" x2="21" y2="6"/>
      <path d="M16 10a4 4 0 0 1-8 0"/>
    </symbol>
  </defs>
</svg>
